<svg width="99" height="27" viewBox="0 0 99 27" fill="none" xmlns="http://www.w3.org/2000/svg">
<g clip-path="url(#clip0_740_2247)">
<path d="M52.6564 0.00155808H44L55 12.7708L57.3803 10.4446C57.8353 10.0042 58.1988 9.47705 58.4497 8.89387C58.8607 7.9231 59.0776 6.49848 57.9746 5.0031L54.4317 0.820021C54.2151 0.557185 53.9425 0.346851 53.6342 0.204636C53.3277 0.0632669 52.9934 -0.00617281 52.6564 0.00155808V0.00155808Z" fill="#990ABC"/>
<path d="M34.6499 3.38444C36.1015 3.37734 37.5386 3.67496 38.8696 4.25829C41.4815 5.38973 43.5605 7.49043 44.6752 10.1244C45.2538 11.4851 45.5456 12.952 45.5322 14.4321C45.5343 15.2406 45.4492 16.0468 45.2786 16.8368L45.2343 16.926H34.5231L31.822 12.5537H39.8413C39.4714 11.4012 38.7823 10.379 37.8552 9.60752C36.9521 8.84456 35.8056 8.43587 34.627 8.45675C33.8902 8.46252 33.1636 8.62945 32.4972 8.94598C31.8371 9.24478 31.2417 9.67132 30.7449 10.2014C30.2409 10.7422 29.846 11.3765 29.5822 12.0691C29.2993 12.8219 29.1579 13.6211 29.1652 14.426C29.181 15.1108 29.3155 15.7877 29.5624 16.426C29.8152 17.1169 30.187 17.7575 30.6608 18.3183C31.1501 18.8922 31.7367 19.3741 32.3933 19.7414C33.0872 20.1316 33.8705 20.3316 34.6652 20.3214C35.3746 20.3302 36.0807 20.2216 36.7552 19.9998C37.4755 19.7114 38.0941 19.2133 38.532 18.5691L38.5717 18.5291L38.6542 18.5691L43.5431 20.7537L43.4636 20.8383C42.4673 22.2512 41.1443 23.3986 39.609 24.1814C38.0755 24.978 36.3739 25.3906 34.6483 25.3844C33.18 25.3917 31.7252 25.1013 30.3706 24.5306C29.0683 23.9919 27.8849 23.1986 26.8888 22.1968C25.8949 21.1915 25.0997 20.0053 24.5452 18.7014C23.9745 17.3447 23.6804 15.8863 23.6804 14.4129C23.6804 12.9395 23.9745 11.4812 24.5452 10.1244C25.0993 8.82025 25.8946 7.63406 26.8888 6.62906C27.8858 5.61899 29.0683 4.81379 30.3706 4.25829C31.7221 3.67375 33.1789 3.37627 34.6499 3.38444V3.38444Z" fill="white"/>
<path d="M93.8314 23.8785C92.0803 24.9818 90.05 25.5523 87.9846 25.5215C86.5389 25.5338 85.1053 25.2562 83.7672 24.7049C82.4292 24.1535 81.2135 23.3395 80.1911 22.3102C79.1687 21.2809 78.3599 20.057 77.812 18.7097C77.2641 17.3625 76.9881 15.9189 76.9999 14.4631C76.9891 13.0067 77.2658 11.5627 77.8138 10.2149C78.3619 8.86712 79.1703 7.64239 80.1923 6.61184C81.2143 5.58129 82.4294 4.76546 83.7671 4.21172C85.1047 3.65797 86.5383 3.37736 87.9846 3.38616C89.4332 3.37346 90.8699 3.65121 92.2108 4.20323C93.5518 4.75524 94.7703 5.57049 95.7952 6.60145C96.8201 7.63241 97.6311 8.85848 98.1807 10.2082C98.7304 11.5579 99.0078 13.0043 98.9968 14.4631V25.54H93.8314V23.8785ZM83.9207 10.3492C82.9716 11.2993 82.3793 12.5516 82.2449 13.8924C82.1105 15.2332 82.4423 16.5795 83.1837 17.7014C83.9252 18.8233 85.0302 19.6513 86.3104 20.0441C87.5905 20.437 88.9664 20.3703 90.2032 19.8555C91.4399 19.3407 92.461 18.4096 93.092 17.2212C93.723 16.0328 93.9249 14.6607 93.6633 13.339C93.4016 12.0174 92.6926 10.8282 91.6573 9.97431C90.6219 9.12042 89.3244 8.65481 87.9861 8.65693C87.2303 8.64943 86.4808 8.79542 85.7823 9.08618C85.0838 9.37695 84.4506 9.80653 83.9207 10.3492V10.3492Z" fill="white"/>
<path d="M21.5265 9.65981C21.2713 8.424 20.744 7.26161 19.9834 6.25827C18.5198 4.33981 16.0815 3.38904 12.6501 3.38904C10.5999 3.32568 8.6041 4.0595 7.07678 5.43827L7.03247 5.47827L7.28608 5.93981L9.11941 9.21827L9.16372 9.2598V9.21365L9.28136 9.15673C10.1143 8.75702 11.0262 8.55242 11.9489 8.55827C12.797 8.51545 13.6423 8.68791 14.4071 9.05981C14.9544 9.35469 15.3908 9.82215 15.6491 10.3906C15.9166 11.0065 16.0694 11.6667 16.0998 12.3383C16.1411 13.0798 16.1609 13.8583 16.1609 14.6783V25.5321H21.997V14.7183C22.0271 13.0198 21.8693 11.3231 21.5265 9.65981V9.65981Z" fill="white"/>
<path d="M0 3.38477V25.5386H5.80555V3.38477H0Z" fill="white"/>
<path d="M67.5277 14.4768L76.9999 25.5383H69.717L63.4058 18.4445L66.1084 15.8091C66.4837 15.4434 66.7061 14.9471 66.73 14.4217C66.7538 13.8963 66.5774 13.3816 66.2367 12.983L63.9894 10.3553L70.9652 3.37988H78.6041L67.5277 14.4768Z" fill="white"/>
<path d="M55.8402 13.6525L58.5138 10.9233C60.1943 9.30788 59.8124 7.07712 59.8124 7.07712C59.7513 6.98327 63.6318 11.5279 65.3491 13.5387C65.564 13.7899 65.6754 14.1144 65.6603 14.4456C65.6453 14.7769 65.5049 15.0898 65.2681 15.3202L53.2811 27.0125H43.8211C43.6984 26.7383 43.6637 26.4323 43.7217 26.1373C43.7798 25.8422 43.9277 25.5727 44.145 25.3663L55.8402 13.6525Z" fill="url(#paint0_linear_740_2247)"/>
</g>
<defs>
<linearGradient id="paint0_linear_740_2247" x1="47.1731" y1="26.774" x2="64.0458" y2="9.90547" gradientUnits="userSpaceOnUse">
<stop stop-color="#960DB7"/>
<stop offset="0.81" stop-color="#DC8FFF"/>
<stop offset="0.94" stop-color="#990ABC"/>
</linearGradient>
<clipPath id="clip0_740_2247">
<rect width="99" height="27" fill="white"/>
</clipPath>
</defs>
</svg>
