<svg width="66" height="18" viewBox="0 0 66 18" fill="none" xmlns="http://www.w3.org/2000/svg">
<g clip-path="url(#clip0_740_2956)">
<path d="M35.1042 0.000875958H29.3333L36.6666 8.51369L38.2534 6.96293C38.5568 6.66929 38.7991 6.31787 38.9664 5.92908C39.2404 5.2819 39.385 4.33216 38.6496 3.33524L36.2877 0.546518C36.1433 0.371294 35.9616 0.231071 35.756 0.136261C35.5517 0.0420152 35.3288 -0.00427797 35.1042 0.000875958Z" fill="#990ABC"/>
<path d="M23.1001 2.25646C24.0678 2.25173 25.0259 2.45013 25.9132 2.83902C27.6545 3.59331 29.0405 4.99378 29.7836 6.74979C30.1694 7.65693 30.3639 8.63482 30.355 9.62159C30.3563 10.1605 30.2997 10.698 30.1859 11.2247L30.1564 11.2842H23.0155L21.2148 8.36928H26.561C26.3144 7.60095 25.855 6.91953 25.2369 6.40518C24.6349 5.89653 23.8706 5.62408 23.0848 5.638C22.5937 5.64184 22.1092 5.75313 21.665 5.96415C21.2249 6.16335 20.8279 6.44771 20.4967 6.80107C20.1607 7.16165 19.8975 7.58453 19.7217 8.0462C19.533 8.54808 19.4388 9.0809 19.4436 9.61749C19.4542 10.0741 19.5438 10.5253 19.7084 10.9508C19.8769 11.4114 20.1248 11.8385 20.4407 12.2124C20.7669 12.595 21.158 12.9162 21.5957 13.1611C22.0583 13.4212 22.5805 13.5545 23.1103 13.5477C23.5832 13.5536 24.054 13.4812 24.5036 13.3334C24.9838 13.1411 25.3962 12.809 25.6881 12.3795L25.7146 12.3529L25.7696 12.3795L29.0289 13.8359L28.9759 13.8924C28.3117 14.8343 27.4297 15.5992 26.4062 16.1211C25.3838 16.6521 24.2494 16.9273 23.0991 16.9231C22.1202 16.9279 21.1503 16.7344 20.2472 16.3539C19.379 15.9947 18.5901 15.4659 17.926 14.798C17.2635 14.1278 16.7333 13.3371 16.3636 12.4677C15.9832 11.5633 15.7871 10.591 15.7871 9.60877C15.7871 8.62651 15.9832 7.65426 16.3636 6.74979C16.733 5.88033 17.2632 5.08953 17.926 4.41954C18.5907 3.74616 19.379 3.20936 20.2472 2.83902C21.1483 2.44933 22.1195 2.25101 23.1001 2.25646Z" fill="#011843"/>
<path d="M62.5543 15.9191C61.3869 16.6547 60.0333 17.0351 58.6564 17.0145C57.6926 17.0227 56.7368 16.8377 55.8448 16.4701C54.9528 16.1025 54.1423 15.5598 53.4607 14.8736C52.7791 14.1874 52.24 13.3715 51.8747 12.4733C51.5094 11.5751 51.3254 10.6127 51.3333 9.64222C51.3261 8.67131 51.5105 7.70864 51.8759 6.81011C52.2412 5.91157 52.7802 5.09509 53.4615 4.40806C54.1429 3.72102 54.9529 3.17713 55.8447 2.80797C56.7365 2.43881 57.6922 2.25173 58.6564 2.2576C59.6222 2.24914 60.5799 2.4343 61.4739 2.80231C62.3679 3.17033 63.1802 3.71382 63.8635 4.40113C64.5468 5.08844 65.0874 5.90582 65.4538 6.80563C65.8203 7.70545 66.0052 8.6697 65.9979 9.64222V17.0268H62.5543V15.9191ZM55.9471 6.89965C55.3144 7.53303 54.9195 8.36789 54.8299 9.26177C54.7403 10.1556 54.9615 11.0531 55.4558 11.8011C55.9501 12.549 56.6868 13.101 57.5403 13.3629C58.3937 13.6248 59.3109 13.5804 60.1354 13.2372C60.96 12.8939 61.6406 12.2732 62.0613 11.4809C62.482 10.6887 62.6166 9.77394 62.4422 8.89286C62.2677 8.01178 61.7951 7.21896 61.1048 6.6497C60.4146 6.08045 59.5496 5.77004 58.6574 5.77145C58.1536 5.76645 57.6539 5.86378 57.1882 6.05762C56.7225 6.25146 56.3004 6.53785 55.9471 6.89965Z" fill="#011843"/>
<path d="M14.3509 6.43987C14.1808 5.616 13.8292 4.84107 13.3222 4.17218C12.3465 2.89321 10.7209 2.25936 8.43332 2.25936C7.0665 2.21712 5.73599 2.70633 4.71777 3.62551L4.68823 3.65218L4.85731 3.95987L6.07953 6.14551L6.10907 6.1732V6.14243L6.18749 6.10449C6.74276 5.83802 7.35074 5.70161 7.96582 5.70551C8.53128 5.67697 9.09479 5.79194 9.60462 6.03987C9.96955 6.23646 10.2604 6.5481 10.4327 6.92705C10.611 7.33767 10.7129 7.7778 10.7331 8.22551C10.7606 8.71987 10.7739 9.23884 10.7739 9.78551V17.0214H14.6646V9.81218C14.6847 8.67983 14.5795 7.54876 14.3509 6.43987Z" fill="#011843"/>
<path d="M0 2.25635V17.0256H3.87037V2.25635H0Z" fill="#011843"/>
<path d="M45.0185 9.65137L51.3333 17.0257H46.478L42.2705 12.2965L44.0723 10.5396C44.3225 10.2958 44.4707 9.96489 44.4866 9.61463C44.5025 9.26438 44.3849 8.92125 44.1578 8.65547L42.6596 6.90368L47.3101 2.25342H52.4027L45.0185 9.65137Z" fill="#011843"/>
<path d="M37.2269 9.10134L39.0093 7.28185C40.1296 6.20493 39.875 4.71775 39.875 4.71775C39.8343 4.65519 42.4213 7.68493 43.5661 9.02544C43.7094 9.19292 43.7837 9.40926 43.7736 9.6301C43.7636 9.85094 43.67 10.0595 43.5121 10.2131L35.5208 18.008H29.2142C29.1324 17.8252 29.1092 17.6212 29.1479 17.4245C29.1866 17.2278 29.2852 17.0482 29.4301 16.9106L37.2269 9.10134Z" fill="#990ABC"/>
</g>
<defs>
<linearGradient id="paint0_linear_740_2956" x1="31.4488" y1="17.849" x2="42.6973" y2="6.60332" gradientUnits="userSpaceOnUse">
<stop stop-color="#960DB7"/>
<stop offset="0.81" stop-color="#DC8FFF"/>
<stop offset="0.94" stop-color="#990ABC"/>
</linearGradient>
<clipPath id="clip0_740_2956">
<rect width="66" height="18" fill="white"/>
</clipPath>
</defs>
</svg>
