<svg width="19" height="19" viewBox="0 0 19 19" fill="none" xmlns="http://www.w3.org/2000/svg">
<path d="M10.1562 7.75C10.1562 7.38756 9.86244 7.09375 9.5 7.09375C9.13756 7.09375 8.84375 7.38756 8.84375 7.75V9.71875H6.875C6.51256 9.71875 6.21875 10.0126 6.21875 10.375C6.21875 10.7374 6.51256 11.0312 6.875 11.0312H8.84375V13C8.84375 13.3624 9.13756 13.6562 9.5 13.6562C9.86244 13.6562 10.1562 13.3624 10.1562 13V11.0312H12.125C12.4874 11.0312 12.7812 10.7374 12.7812 10.375C12.7812 10.0126 12.4874 9.71875 12.125 9.71875H10.1562V7.75Z" fill="#990BBC"/>
<path fill-rule="evenodd" clip-rule="evenodd" d="M12.1475 0.119448C11.3974 0.0937501 10.5247 0.0937501 9.50969 0.0937501H9.46041C7.85344 0.093743 6.59379 0.0937373 5.59442 0.202012C4.57457 0.312505 3.74824 0.542034 3.04271 1.05463C2.61558 1.36496 2.23996 1.74058 1.92963 2.16771C1.41703 2.87324 1.18751 3.69957 1.07701 4.71942C0.968737 5.71879 0.968743 6.97844 0.96875 8.58541V10.4146C0.968743 12.0216 0.968737 13.2812 1.07701 14.2806C1.18751 15.3004 1.41703 16.1268 1.92963 16.8323C2.23996 17.2594 2.61558 17.635 3.04271 17.9454C3.74824 18.458 4.57457 18.6875 5.59442 18.798C6.59377 18.9063 7.85339 18.9063 9.46032 18.9062H9.53961C11.1465 18.9063 12.4062 18.9063 13.4056 18.798C14.4254 18.6875 15.2518 18.458 15.9573 17.9454C16.3844 17.635 16.76 17.2594 17.0704 16.8323C17.583 16.1268 17.8125 15.3004 17.923 14.2806C18.0313 13.2812 18.0313 12.0216 18.0312 10.4147V8.61536C18.0312 7.6003 18.0312 6.72759 18.0056 5.97753C17.9494 4.33827 17.772 3.13341 17.0704 2.16771C16.76 1.74058 16.3844 1.36496 15.9573 1.05463C14.9916 0.353009 13.7867 0.175611 12.1475 0.119448ZM3.81417 2.11647C4.25868 1.79352 4.82762 1.60527 5.73579 1.50688C6.65624 1.40715 7.84487 1.40625 9.5 1.40625C10.2423 1.40625 10.8928 1.40629 11.4703 1.41571C11.4742 1.83103 11.4871 2.13678 11.5307 2.41206C11.8717 4.5649 13.5601 6.25333 15.7129 6.59431C15.9882 6.63791 16.294 6.65083 16.7093 6.65465C16.7187 7.23219 16.7188 7.8827 16.7188 8.625V10.375C16.7188 12.0301 16.7178 13.2188 16.6181 14.1392C16.5197 15.0474 16.3315 15.6163 16.0085 16.0608C15.7792 16.3765 15.5015 16.6542 15.1858 16.8835C14.7413 17.2065 14.1724 17.3947 13.2642 17.4931C12.3438 17.5928 11.1551 17.5938 9.5 17.5938C7.84487 17.5938 6.65624 17.5928 5.73579 17.4931C4.82762 17.3947 4.25868 17.2065 3.81417 16.8835C3.49847 16.6542 3.22084 16.3765 2.99147 16.0608C2.66852 15.6163 2.48027 15.0474 2.38188 14.1392C2.28215 13.2188 2.28125 12.0301 2.28125 10.375V8.625C2.28125 6.96987 2.28215 5.78124 2.38188 4.86079C2.48027 3.95262 2.66852 3.38368 2.99147 2.93917C3.22084 2.62347 3.49847 2.34584 3.81417 2.11647ZM12.827 2.20674C12.7986 2.02734 12.7878 1.81959 12.7837 1.46526C13.974 1.54731 14.6613 1.73538 15.1858 2.11647C15.5015 2.34584 15.7792 2.62347 16.0085 2.93917C16.3896 3.4637 16.5777 4.15102 16.6597 5.34131C16.3054 5.33722 16.0977 5.32638 15.9183 5.29797C14.327 5.04594 13.0791 3.79797 12.827 2.20674Z" fill="#990BBC"/>
</svg>
