<svg width="20" height="20" viewBox="0 0 20 20" fill="none" xmlns="http://www.w3.org/2000/svg">
<path d="M9.5 7.75C9.5 7.33579 9.16421 7 8.75 7C8.33579 7 8 7.33579 8 7.75V10H5.75C5.33579 10 5 10.3358 5 10.75C5 11.1642 5.33579 11.5 5.75 11.5H8V13.75C8 14.1642 8.33579 14.5 8.75 14.5C9.16421 14.5 9.5 14.1642 9.5 13.75V11.5H11.75C12.1642 11.5 12.5 11.1642 12.5 10.75C12.5 10.3358 12.1642 10 11.75 10H9.5V7.75Z" fill="#990ABC"/>
<path fill-rule="evenodd" clip-rule="evenodd" d="M12.7757 0.0293686C11.9185 1.32248e-07 10.9211 1.32337e-07 9.76107 1.32337e-07H9.70475C7.86821 -8.0335e-06 6.42861 -1.45286e-05 5.28648 0.123728C4.12094 0.250006 3.17656 0.512324 2.37024 1.09815C1.88209 1.45281 1.45281 1.88209 1.09815 2.37024C0.512324 3.17656 0.250006 4.12094 0.123728 5.28648C-1.45286e-05 6.42861 -8.0335e-06 7.86821 1.32338e-07 9.70475V9.79525C-8.0335e-06 11.6318 -1.45286e-05 13.0714 0.123728 14.2135C0.250006 15.3791 0.512324 16.3234 1.09815 17.1298C1.45281 17.6179 1.88209 18.0472 2.37024 18.4018C3.17656 18.9877 4.12094 19.25 5.28648 19.3763C6.42859 19.5 7.86817 19.5 9.70465 19.5H9.79527C11.6318 19.5 13.0714 19.5 14.2135 19.3763C15.3791 19.25 16.3234 18.9877 17.1298 18.4018C17.6179 18.0472 18.0472 17.6179 18.4018 17.1298C18.9877 16.3234 19.25 15.3791 19.3763 14.2135C19.5 13.0714 19.5 11.6318 19.5 9.79535V9.73899C19.5 8.57891 19.5 7.58153 19.4706 6.72432C19.4064 4.85087 19.2037 3.4739 18.4018 2.37024C18.0472 1.88209 17.6179 1.45281 17.1298 1.09815C16.0261 0.296296 14.6491 0.0935553 12.7757 0.0293686ZM3.25191 2.31168C3.75992 1.94259 4.41013 1.72745 5.44804 1.615C6.49999 1.50103 7.85843 1.5 9.75 1.5C10.5983 1.5 11.3418 1.50005 12.0018 1.51082C12.0062 1.98547 12.021 2.33489 12.0708 2.6495C12.4605 5.10988 14.3901 7.03952 16.8505 7.42921C17.1651 7.47904 17.5145 7.49381 17.9892 7.49818C18 8.15822 18 8.90165 18 9.75C18 11.6416 17.999 13 17.885 14.052C17.7725 15.0899 17.5574 15.7401 17.1883 16.2481C16.9262 16.6089 16.6089 16.9262 16.2481 17.1883C15.7401 17.5574 15.0899 17.7725 14.052 17.885C13 17.999 11.6416 18 9.75 18C7.85843 18 6.49999 17.999 5.44804 17.885C4.41013 17.7725 3.75992 17.5574 3.25191 17.1883C2.89111 16.9262 2.57382 16.6089 2.31168 16.2481C1.94259 15.7401 1.72745 15.0899 1.615 14.052C1.50103 13 1.5 11.6416 1.5 9.75C1.5 7.85843 1.50103 6.49999 1.615 5.44804C1.72745 4.41013 1.94259 3.75992 2.31168 3.25191C2.57382 2.89111 2.89111 2.57382 3.25191 2.31168ZM13.5523 2.41485C13.5199 2.20981 13.5075 1.97238 13.5028 1.56744C14.8631 1.66121 15.6486 1.87615 16.2481 2.31168C16.6089 2.57382 16.9262 2.89111 17.1883 3.25191C17.6238 3.85137 17.8388 4.63688 17.9326 5.99722C17.5276 5.99254 17.2902 5.98015 17.0852 5.94768C15.2666 5.65965 13.8404 4.23339 13.5523 2.41485Z" fill="#990ABC"/>
</svg>
