<svg width="23" height="23" viewBox="0 0 23 23" fill="none" xmlns="http://www.w3.org/2000/svg">
<path d="M16.721 1.50214C17.7284 1.49765 18.4205 1.4957 18.9477 1.55328C19.1191 1.57199 19.2623 1.5961 19.3839 1.62525L8.75543 12.2537C8.46253 12.5466 8.46253 13.0215 8.75543 13.3144C9.04832 13.6073 9.52319 13.6073 9.81609 13.3144L20.4446 2.68591C20.4737 2.80751 20.4978 2.95071 20.5165 3.12206C20.5741 3.64929 20.5721 4.34144 20.5677 5.34881L20.5566 7.83095C20.5547 8.24516 20.889 8.58244 21.3032 8.58429C21.7174 8.58613 22.0547 8.25185 22.0566 7.83764L22.0678 5.3108C22.0721 4.35908 22.0756 3.58125 22.0077 2.95921C21.937 2.31239 21.7814 1.73972 21.4001 1.24694C21.3175 1.14026 21.2285 1.03898 21.1334 0.943641C21.036 0.845874 20.9322 0.754366 20.8229 0.66971C20.3301 0.288348 19.7574 0.132778 19.1106 0.0621411C18.4886 -0.00578776 17.7107 -0.0023034 16.759 0.00195988L14.2322 0.0132341C13.8179 0.0150821 13.4837 0.352363 13.4855 0.766573C13.4874 1.18078 13.8246 1.51507 14.2388 1.51322L16.721 1.50214Z" fill="#990ABC"/>
<path d="M11.759 3.19206C11.1534 3.1848 10.4863 3.1848 9.75324 3.1848H9.70475C7.86821 3.18479 6.42861 3.18478 5.28648 3.30852C4.12094 3.4348 3.17656 3.69712 2.37024 4.28295C1.88209 4.63761 1.45281 5.06689 1.09815 5.55503C0.512324 6.36135 0.250006 7.30573 0.123728 8.47127C-1.45286e-05 9.61341 -8.0335e-06 11.053 1.32337e-07 12.8895V12.98C-8.0335e-06 14.8166 -1.45286e-05 16.2562 0.123728 17.3983C0.250006 18.5639 0.512324 19.5082 1.09815 20.3146C1.45281 20.8027 1.88209 21.232 2.37024 21.5866C3.17656 22.1725 4.12094 22.4348 5.28648 22.5611C6.42859 22.6848 7.86817 22.6848 9.70465 22.6848H9.79527C11.6318 22.6848 13.0714 22.6848 14.2135 22.5611C15.3791 22.4348 16.3234 22.1725 17.1298 21.5866C17.6179 21.232 18.0472 20.8027 18.4018 20.3146C18.9877 19.5082 19.25 18.5639 19.3763 17.3983C19.5 16.2562 19.5 14.8166 19.5 12.9801V12.9313C19.5 12.1984 19.5 11.5314 19.4927 10.9258C19.4878 10.5116 19.148 10.1799 18.7338 10.1848C18.3196 10.1898 17.9879 10.5296 17.9928 10.9438C18 11.5395 18 12.1981 18 12.9348C18 14.8264 17.999 16.1848 17.885 17.2367C17.7725 18.2747 17.5574 18.9249 17.1883 19.4329C16.9262 19.7937 16.6089 20.111 16.2481 20.3731C15.7401 20.7422 15.0899 20.9573 14.052 21.0698C13 21.1838 11.6416 21.1848 9.75 21.1848C7.85843 21.1848 6.49999 21.1838 5.44804 21.0698C4.41013 20.9573 3.75992 20.7422 3.25191 20.3731C2.89111 20.111 2.57382 19.7937 2.31168 19.4329C1.94259 18.9249 1.72745 18.2747 1.615 17.2367C1.50103 16.1848 1.5 14.8264 1.5 12.9348C1.5 11.0432 1.50103 9.68479 1.615 8.63284C1.72745 7.59493 1.94259 6.94471 2.31168 6.43671C2.57382 6.07591 2.89111 5.75861 3.25191 5.49647C3.75992 5.12739 4.41013 4.91225 5.44804 4.7998C6.49999 4.68582 7.85843 4.6848 9.75 4.6848C10.4867 4.6848 11.1452 4.68481 11.741 4.69195C12.1552 4.69691 12.495 4.36517 12.4999 3.95099C12.5049 3.53681 12.1732 3.19702 11.759 3.19206Z" fill="#990ABC"/>
</svg>
